Coordinates
nRows=17
nColumns=24

# SIMM Motion File Header:
name Coordinates
datacolumns 24
datarows 17
otherdata 1
range 1.56099999999999990000 1.57700000000000000000
endheader
time	pelvis_tx	pelvis_ty	pelvis_tz	pelvis_tilt	pelvis_list	pelvis_rotation	hip_flexion_r	hip_adduction_r	hip_rotation_r	knee_angle_r	ankle_angle_r	subtalar_angle_r	mtp_angle_r	hip_flexion_l	hip_adduction_l	hip_rotation_l	knee_angle_l	ankle_angle_l	subtalar_angle_l	mtp_angle_l	lumbar_extension	lumbar_bending	lumbar_rotation
      1.56099999999999990000	      0.77951521215030584000	      0.81887440532751221000	     -0.23323626163656919000	     -4.81750150622551750000	     -2.67039538959194060000	      0.34326388450489115000	      5.33759225641992070000	      8.62894874706512560000	     -0.26413256062927404000	     -0.30709494790689579000	     -2.43699441164735160000	     -0.00000000000000155982	      0.00000000000000503880	     26.56498585193292400000	    -10.47626983541833900000	      1.34865045126028260000	    -57.47010234041675900000	      5.34150085031215570000	      0.00000000000048068975	     -0.00000000000065573605	      8.39668605096685280000	     -0.56470512225718950000	     12.53375252249030500000
      1.56200000000000010000	      0.77978079802031552000	      0.81884926025094218000	     -0.23318706084799046000	     -4.83753981484148630000	     -2.67564416957095300000	      0.31702766266288146000	      5.33123881731078870000	      8.64080795610339080000	     -0.27119288976576522000	     -0.31043596450136068000	     -2.41059423978714320000	     -0.00000000000000127130	      0.00000000000000479012	     26.65181316598919300000	    -10.45809061727112300000	      1.42077042292421840000	    -57.30828623815940400000	      5.46349891361373440000	      0.00000000000048137129	     -0.00000000000065633406	      8.40856940461016580000	     -0.56058952197180145000	     12.56385512183604000000
      1.56299999999999990000	      0.78004593248881782000	      0.81882460897793530000	     -0.23313913589152388000	     -4.85735469283141800000	     -2.68069780583537740000	      0.29089918935102732000	      5.32454701502385140000	      8.65236621830774060000	     -0.27803607011567083000	     -0.31360876506314905000	     -2.38387473181519520000	     -0.00000000000000100595	      0.00000000000000460964	     26.73747003978372300000	    -10.43944223149729900000	      1.49323556086487860000	    -57.14382470286275900000	      5.58303235505148440000	      0.00000000000048206677	     -0.00000000000065698195	      8.42011067328649430000	     -0.55657950538628553000	     12.59385722802681700000
      1.56400000000000010000	      0.78031061555581260000	      0.81880045150849168000	     -0.23309248676716945000	     -4.87694614019531780000	     -2.68555629838521390000	      0.26487846456931846000	      5.31751684955910160000	      8.66362353367818020000	     -0.28466210167899120000	     -0.31661334959226028000	     -2.35683588773149260000	     -0.00000000000000076376	      0.00000000000000449736	     26.82195647331654000000	    -10.42032467809685600000	      1.56604586508229970000	    -56.97671773452672300000	      5.70010117462542890000	      0.00000000000048277621	     -0.00000000000065767972	      8.43130985699583850000	     -0.55267507250064118000	     12.62375884106264400000
      1.56499999999999990000	      0.78057529862280739000	      0.81877629403904806000	     -0.23304583764281503000	     -4.89653758755921230000	     -2.69041479093504910000	      0.23885773978761535000	      5.31048668409435280000	      8.67488084904861620000	     -0.29128813324231007000	     -0.31961793412137079000	     -2.32979704364779570000	     -0.00000000000000052158	      0.00000000000000438508	     26.90644290684933900000	    -10.40120712469641800000	      1.63885616929970480000	    -56.80961076619072300000	      5.81716999419934670000	      0.00000000000048348565	     -0.00000000000065837749	      8.44250904070517900000	     -0.54877063961499761000	     12.65366045409846600000
      1.56600000000000010000	      0.78083910615944618000	      0.81875291190418564000	     -0.23300181247245028000	     -4.91579274599146300000	     -2.69490087508795460000	      0.21321538279712338000	      5.30290911830176890000	      8.68556143978384120000	     -0.29776741214354030000	     -0.32223712683181044000	     -2.30291537160802350000	     -0.00000000000000028717	      0.00000000000000427106	     26.98892393933153500000	    -10.38115836961160600000	      1.71235955991755180000	    -56.63773469843548000000	      5.92955140127210440000	      0.00000000000048419423	     -0.00000000000065908567	      8.45315534767399690000	     -0.54510391618063170000	     12.68315420001074600000
      1.56699999999999990000	      0.78110291369608509000	      0.81872952976932323000	     -0.23295778730208552000	     -4.93504790442370740000	     -2.69938695924085880000	      0.18757302580663746000	      5.29533155250918690000	      8.69624203051906090000	     -0.30424669104476904000	     -0.32485631954224919000	     -2.27603369956825800000	     -0.00000000000000005277	      0.00000000000000415703	     27.07140497181371300000	    -10.36110961452680000000	      1.78586295053538310000	    -56.46585863068026600000	      6.04193280834483290000	      0.00000000000048490281	     -0.00000000000065979385	      8.46380165464281300000	     -0.54143719274626678000	     12.71264794592301900000
      1.56800000000000010000	      0.78136608365756099000	      0.81870673944271077000	     -0.23291579246180555000	     -4.95402808391166170000	     -2.70353805543349330000	      0.16228407157920302000	      5.28730910098048760000	      8.70643273467554830000	     -0.31071995897378862000	     -0.32712752665041223000	     -2.24983796568560730000	      0.00000000000000020125	      0.00000000000000398940	     27.15239644088957500000	    -10.34031636363697400000	      1.85978081825482850000	    -56.29055184180432300000	      6.15084245904878650000	      0.00000000000048560252	     -0.00000000000066049460	      8.47400393631493640000	     -0.53802852501442056000	     12.74173978745855100000
      1.56900000000000000000	      0.78162904109398268000	      0.81868414638551501000	     -0.23287447439822048000	     -4.97291660375151250000	     -2.70757748897270290000	      0.13711291827279409000	      5.27913835420641680000	      8.71646014330578640000	     -0.31719122324540333000	     -0.32928273855781520000	     -2.22387087785533840000	      0.00000000000000046180	      0.00000000000000380391	     27.23289138882997300000	    -10.31927494747881500000	      1.93383684500812450000	    -56.11410147922150300000	      6.25859485762977390000	      0.00000000000048629928	     -0.00000000000066119289	      8.48405820955482600000	     -0.53470587585008222000	     12.77069766086849400000
      1.57000000000000010000	      0.78189178813728100000	      0.81866179724400456000	     -0.23283389760684620000	     -4.99167511626682090000	     -2.71147979670650450000	      0.11209531410462692000	      5.27076786040028370000	      8.72629455593952660000	     -0.32369106569157263000	     -0.33129030197342718000	     -2.19830394561988700000	      0.00000000000000072236	      0.00000000000000362585	     27.31284027317661900000	    -10.29795378305137300000	      2.00800529019254670000	    -55.93649809748547600000	      6.36514802243543000000	      0.00000000000048699677	     -0.00000000000066189868	      8.49391644607817400000	     -0.53150236053543565000	     12.79947540973311600000
      1.57100000000000000000	      0.78215390400120921000	      0.81864017984955018000	     -0.23279554463210428000	     -5.01004360680848300000	     -2.71497072702407300000	      0.08753835735121255600	      5.26179812549796290000	      8.73554998058375710000	     -0.33027664266140105000	     -0.33285491991365951000	     -2.17393748016892460000	      0.00000000000000098297	      0.00000000000000347010	     27.39115096674191800000	    -10.27579337381609800000	      2.08251099067028540000	    -55.75543565828995400000	      6.46810348591495550000	      0.00000000000048769644	     -0.00000000000066262698	      8.50318657245188450000	     -0.52865624676987177000	     12.82771278496175100000
      1.57200000000000010000	      0.78241601986513742000	      0.81861856245509568000	     -0.23275719165736236000	     -5.02841209735014870000	     -2.71846165734164200000	      0.06298140059779273900	      5.25282839059564120000	      8.74480540522798750000	     -0.33686221963123097000	     -0.33441953785389217000	     -2.14957101471795740000	      0.00000000000000124358	      0.00000000000000331436	     27.46946166030723500000	    -10.25363296458081700000	      2.15701669114804060000	    -55.57437321909439700000	      6.57105894939450330000	      0.00000000000048839611	     -0.00000000000066335529	      8.51245669882559500000	     -0.52581013300430735000	     12.85595016019039100000
      1.57300000000000000000	      0.78267752241007471000	      0.81859770132410947000	     -0.23272114626221427000	     -5.04634225298815500000	     -2.72151780318095420000	      0.03897156964420815000	      5.24321054496260160000	      8.75345881145437050000	     -0.34358314727739808000	     -0.33553238085963150000	     -2.12656083951814120000	      0.00000000000000150161	      0.00000000000000315545	     27.54614368899545300000	    -10.23060907812312300000	      2.23179812647345210000	    -55.39004657956076000000	      6.67048528444850850000	      0.00000000000048910483	     -0.00000000000066410403	      8.52107814024370570000	     -0.52336592046452135000	     12.88352525404088800000
      1.57400000000000010000	      0.78293882051534824000	      0.81857709228094588000	     -0.23268587006026414000	     -5.06412629699161170000	     -2.72442902086084620000	      0.01514411395723111300	      5.23337666241931740000	      8.76191154487480080000	     -0.35034919181568019000	     -0.33649463222053766000	     -2.10400276106870930000	      0.00000000000000175878	      0.00000000000000299549	     27.62228282939132000000	    -10.20729736592461600000	      2.30667147341477290000	    -55.20463187324768500000	      6.76873524336067690000	      0.00000000000048981658	     -0.00000000000066485959	      8.52948335334328080000	     -0.52105567499999628000	     12.91087958743200700000
      1.57500000000000000000	      0.78319992132598859000	      0.81855669604960057000	     -0.23265133534312674000	     -5.08178020557419430000	     -2.72720243816601470000	     -0.00849443818704473390	      5.22335864809089050000	      8.77017616207629660000	     -0.35715006842720276000	     -0.33733918229258797000	     -2.08180413287351970000	      0.00000000000000199781	      0.00000000000000288215	     27.69793716207813400000	    -10.18371589768445400000	      2.38161093623293270000	    -55.01825166497477700000	      6.86589559728339260000	      0.00000000000049052892	     -0.00000000000066561555	      8.53769192620995200000	     -0.51887635682642219000	     12.93799684257110600000
      1.57600000000000010000	      0.78346043025272927000	      0.81853693825370988000	     -0.23261902508042756000	     -5.09904370789416280000	     -2.72956245434700940000	     -0.03156627970322627200	      5.21278823840701390000	      8.77787643062097800000	     -0.36405544125845457000	     -0.33783062849806411000	     -2.06068385544106070000	      0.00000000000000218245	      0.00000000000000290865	     27.77213707163782900000	    -10.15932516131930200000	      2.45674874668168150000	    -54.82897495082214300000	      6.95978713623777430000	      0.00000000000049124305	     -0.00000000000066637274	      8.54531057837790260000	     -0.51708982052570773000	     12.96440286295415100000
      1.57700000000000000000	      0.78372093917946994000	      0.81851718045781907000	     -0.23258671481772841000	     -5.11630721021412690000	     -2.73192247052800320000	     -0.05463812121940268100	      5.20221782872314000000	      8.78557669916565760000	     -0.37096081408970483000	     -0.33832207470354014000	     -2.03956357800860570000	      0.00000000000000236708	      0.00000000000000293515	     27.84633698119750600000	    -10.13493442495415300000	      2.53188655713041390000	    -54.63969823666955300000	      7.05367867519213390000	      0.00000000000049195719	     -0.00000000000066712992	      8.55292923054585150000	     -0.51530328422499350000	     12.99080888333719000000
